<svg width="40" height="40" viewBox="0 0 40 40" fill="none" xmlns="http://www.w3.org/2000/svg">
<path fill-rule="evenodd" clip-rule="evenodd" d="M20 38.7C30.3277 38.7 38.7 30.3277 38.7 20C38.7 9.67228 30.3277 1.3 20 1.3C9.67228 1.3 1.3 9.67228 1.3 20C1.3 30.3277 9.67228 38.7 20 38.7ZM20 40C31.0457 40 40 31.0457 40 20C40 8.9543 31.0457 0 20 0C8.9543 0 0 8.9543 0 20C0 31.0457 8.9543 40 20 40Z" fill="#B3814F"/>
<g clip-path="url(#clip0_74_521)">
<path d="M25.5615 17.1492C26.1308 16.745 26.6097 16.2404 27 15.6594V15.6588C26.4791 15.8869 25.9249 16.0386 25.3463 16.1121C25.9412 15.7568 26.3957 15.1986 26.6092 14.526C26.0544 14.8567 25.4419 15.0901 24.7892 15.2207C24.2624 14.6596 23.5117 14.3125 22.6927 14.3125C21.1037 14.3125 19.8244 15.6022 19.8244 17.1831C19.8244 17.4106 19.8437 17.6293 19.8909 17.8376C17.5051 17.7209 15.3934 16.5776 13.9747 14.8352C13.7274 15.2651 13.5816 15.7568 13.5816 16.2859C13.5816 17.2799 14.0932 18.1607 14.8568 18.6712C14.3953 18.6624 13.9432 18.5282 13.56 18.3177V18.3492C13.56 19.7439 14.5546 20.9024 15.8595 21.1696C15.6256 21.2337 15.3712 21.2641 15.107 21.2641C14.9232 21.2641 14.7377 21.2536 14.5639 21.2151C14.9355 22.3514 15.9913 23.1873 17.2455 23.2147C16.269 23.9783 15.0288 24.4386 13.6866 24.4386C13.4515 24.4386 13.2257 24.4281 13 24.3995C14.2717 25.2191 15.7778 25.6875 17.403 25.6875C22.4681 25.6875 25.7692 21.4618 25.5615 17.1492Z" fill="#B3814F"/>
</g>
<defs>
<clipPath id="clip0_74_521">
<rect width="14" height="14" fill="white" transform="translate(13 13)"/>
</clipPath>
</defs>
</svg>
